<?xml version="1.0"?>
<svg width="512" height="512" xmlns="http://www.w3.org/2000/svg" xmlns:svg="http://www.w3.org/2000/svg">
 <!--!Font Awesome Free 6.5.1 by @fontawesome - https://fontawesome.com License - https://fontawesome.com/license/free Copyright 2024 Fonticons, Inc.-->
 <g class="layer">
  <title>Layer 1</title>
  <path d="m403.8,34.4c12,-5 25.7,-2.2 34.9,6.9l64,64c6,6 9.4,14.1 9.4,22.6s-3.4,16.6 -9.4,22.6l-64,64c-9.2,9.2 -22.9,11.9 -34.9,6.9s-19.8,-16.6 -19.8,-29.6l0,-31.8l-32,0c-10.1,0 -19.6,4.7 -25.6,12.8l-42.4,56.5l-40,-53.3l31.2,-41.6c18.1,-24.2 46.6,-38.4 76.8,-38.4l32,0l0,-32c0,-12.9 7.8,-24.6 19.8,-29.6zm-239.8,248.3l40,53.3l-31.2,41.6c-18.1,24.2 -46.6,38.4 -76.8,38.4l-64,0c-17.7,0 -32,-14.3 -32,-32s14.3,-32 32,-32l64,0c10.1,0 19.6,-4.7 25.6,-12.8l42.4,-56.5zm274.6,188c-9.2,9.2 -22.9,11.9 -34.9,6.9s-19.8,-16.6 -19.8,-29.6l0,-32l-31.9,0c-30.2,0 -58.7,-14.2 -76.8,-38.4l-153.6,-204.8c-6,-8.1 -15.5,-12.8 -25.6,-12.8l-64,0c-17.7,0 -32,-14.3 -32,-32s14.3,-32 32,-32l64,0c30.2,0 58.7,14.2 76.8,38.4l153.6,204.8c6,8.1 15.5,12.8 25.6,12.8l32,0l0,-32c0,-12.9 7.8,-24.6 19.8,-29.6s25.7,-2.2 34.9,6.9l64,64c6,6 9.4,14.1 9.4,22.6s-3.4,16.6 -9.4,22.6l-64,64l-0.1,0.2z" fill="#ffffff" id="svg_1"/>
 </g>
</svg>